<svg xmlns="http://www.w3.org/2000/svg" xmlns:xlink="http://www.w3.org/1999/xlink" viewBox="0 0 328.89 461.04"><defs><style>.cls-1{isolation:isolate;}.cls-2{fill:#0b74b8;}.cls-3{fill:#2eaade;}.cls-4{fill:#ebebeb;}.cls-5{opacity:0.2;fill:url(#linear-gradient);}.cls-5,.cls-7{mix-blend-mode:multiply;}.cls-6{fill:#fff;}.cls-7{opacity:0.3;fill:url(#linear-gradient-2);}</style><linearGradient id="linear-gradient" x1="159" y1="223" x2="83.35" y2="259.55" gradientUnits="userSpaceOnUse"><stop offset="0" stop-color="#fff"/><stop offset="1"/></linearGradient><linearGradient id="linear-gradient-2" x1="164.42" y1="199.44" x2="267.57" y2="199.44" xlink:href="#linear-gradient"/></defs><title>Asset 2</title><g class="cls-1"><g id="Layer_2" data-name="Layer 2"><g id="shields"><polygon points="78.45 0 78.45 17.55 78.45 40.38 78.45 57.93 97.82 57.93 124.92 57.93 124.92 40.38 97.82 40.38 97.82 17.55 124.92 17.55 124.92 0 97.82 0 78.45 0"/><polygon points="134.13 15.5 159.98 42.43 134.13 42.43 134.13 57.93 186.97 57.93 186.97 42.43 162.25 15.5 186.97 15.5 186.97 0 134.13 0 134.13 15.5"/><polygon points="250.44 0 197.6 0 197.6 15.5 223.45 42.43 197.6 42.43 197.6 57.93 250.44 57.93 250.44 42.43 225.72 15.5 250.44 15.5 250.44 0"/><polygon class="cls-2" points="164.24 461.04 29.93 423.75 0 88.04 328.89 88.04 298.92 423.7 164.24 461.04"/><polygon class="cls-3" points="273.27 402.32 298.88 115.49 164.44 115.49 164.44 432.5 273.27 402.32"/><polygon class="cls-4" points="72.43 281.72 263.88 198.38 267.56 157.21 68.76 240.54 72.43 281.72"/><polygon class="cls-5" points="72.43 281.72 263.88 198.38 267.56 157.21 68.76 240.54 72.43 281.72"/><polygon class="cls-4" points="164.43 157.21 61.32 157.21 62.31 168.25 64.99 198.38 164.57 198.38 164.57 157.21 164.43 157.21"/><polygon class="cls-6" points="260.13 240.54 164.43 240.54 164.43 281.72 215.13 281.72 210.34 335.12 164.43 347.51 164.43 390.35 248.83 366.95 260.13 240.54"/><polygon class="cls-6" points="164.43 200.44 164.43 241.67 263.88 198.38 267.56 157.21 164.43 200.44"/><polygon class="cls-7" points="164.43 200.44 164.43 241.67 263.88 198.38 267.56 157.21 164.43 200.44"/><polygon class="cls-4" points="68.76 240.54 72.43 281.72 164.57 281.72 164.57 240.54 68.76 240.54"/><polygon class="cls-6" points="267.56 157.21 164.43 157.21 164.43 198.28 164.43 198.38 263.75 198.38 263.75 198.38 263.88 198.38 267.56 157.21"/><polygon class="cls-4" points="164.43 347.52 164.43 347.52 118.57 335.14 115.64 302.31 93.36 302.31 74.31 302.31 80.08 366.95 164.41 390.37 164.43 390.36 164.43 347.52"/></g></g></g></svg>