<svg xmlns="http://www.w3.org/2000/svg" viewBox="0 0 328.89 464.26"><defs><style>.cls-1{fill:#e44d26;}.cls-2{fill:#f16529;}.cls-3{fill:#fff;}.cls-4{fill:#ebebeb;}</style></defs><title>Asset 1</title><g id="Layer_2" data-name="Layer 2"><g id="shields"><polygon points="45.89 0 64.39 0 64.39 18.27 81.3 18.27 81.3 0 99.8 0 99.8 55.33 81.3 55.33 81.3 36.8 64.39 36.8 64.39 55.33 45.89 55.33 45.89 0 45.89 0"/><polygon points="124.11 18.35 107.83 18.35 107.83 0 158.9 0 158.9 18.35 142.61 18.35 142.61 55.33 124.11 55.33 124.11 18.35 124.11 18.35"/><polygon points="167 0 186.28 0 198.15 19.44 209.99 0 229.28 0 229.28 55.33 210.87 55.33 210.87 27.91 198.15 47.58 197.82 47.58 185.09 27.91 185.09 55.33 167 55.33 167 0 167 0"/><polygon points="238.49 0 256.99 0 256.99 37.04 282.99 37.04 282.99 55.33 238.49 55.33 238.49 0 238.49 0"/><polygon class="cls-1" points="164.24 464.26 29.93 426.97 0 91.26 328.89 91.26 298.93 426.92 164.24 464.26"/><polygon class="cls-2" points="273.27 405.54 298.88 118.71 164.44 118.71 164.44 435.71 273.27 405.54"/><polygon class="cls-3" points="164.57 201.05 263.88 201.05 267.57 159.88 164.57 159.88 164.43 159.88 61.32 159.88 72.43 284.39 164.43 284.39 164.57 284.39 215.13 284.39 210.35 337.79 164.43 350.18 164.43 350.19 164.39 350.2 118.53 337.81 115.6 304.98 74.27 304.98 80.04 369.62 164.38 393.04 164.57 392.99 164.57 392.98 248.83 369.62 260.13 243.22 164.57 243.22 164.43 243.22 110.09 243.22 106.32 201.05 164.43 201.05 164.57 201.05"/><polygon class="cls-4" points="164.44 350.18 164.43 350.18 164.43 350.19 164.39 350.2 118.53 337.81 115.6 304.98 74.27 304.98 80.04 369.62 164.38 393.04 164.44 393.02 164.44 350.18"/><polygon class="cls-4" points="164.44 284.39 164.44 243.22 164.43 243.22 110.09 243.22 106.32 201.05 164.43 201.05 164.44 201.05 164.44 159.88 164.43 159.88 61.32 159.88 72.43 284.39 164.43 284.39 164.44 284.39"/></g></g></svg>