<svg xmlns="http://www.w3.org/2000/svg" viewBox="0 0 328.89 461.04"><defs><style>.cls-1{fill:#dab92d;}.cls-2{fill:#ffd83a;}.cls-3{fill:#fff;}</style></defs><title>Asset 3</title><g id="Layer_2" data-name="Layer 2"><g id="shields"><polygon class="cls-1" points="164.24 461.04 29.93 423.75 0 88.04 328.89 88.04 298.93 423.7 164.24 461.04"/><polygon class="cls-2" points="273.27 402.32 298.88 115.49 164.44 115.49 164.44 432.5 273.27 402.32"/><polygon class="cls-3" points="171.86 156.66 171.86 281.17 213.03 281.17 213.51 281.17 208.73 334.57 171.86 344.52 171.86 387.29 247.22 366.4 258.52 240 213.03 240 213.03 197.83 262.13 197.83 262.27 197.83 265.95 156.66 171.86 156.66"/><polygon class="cls-3" points="115.33 156.66 121.55 336.91 108.88 333.91 106.2 301.76 72.66 301.76 78.42 366.4 153.8 387.33 153.8 156.66 115.33 156.66"/><polygon points="218.7 0 165.86 0 165.86 15.5 191.72 42.43 165.86 42.43 165.86 57.92 218.7 57.92 218.7 42.43 193.98 15.5 218.7 15.5 218.7 0"/><polygon points="137.29 40.38 129.55 40.38 129.55 36.55 110.19 36.55 110.19 40.38 110.19 53.94 110.19 57.92 156.65 57.92 156.65 0 137.29 0 137.29 40.38"/></g></g></svg>