<?xml version="1.0" standalone="no"?>
<!DOCTYPE svg PUBLIC "-//W3C//DTD SVG 20010904//EN"
 "http://www.w3.org/TR/2001/REC-SVG-20010904/DTD/svg10.dtd">
<svg version="1.0" xmlns="http://www.w3.org/2000/svg"
 width="225.000000pt" height="225.000000pt" viewBox="0 0 225.000000 225.000000"
 preserveAspectRatio="xMidYMid meet">

<g transform="translate(0.000000,225.000000) scale(0.100000,-0.100000)"
fill="#000000" stroke="none">
<path d="M485 1721 c-393 -112 -574 -561 -368 -910 74 -125 195 -224 333 -272
89 -31 258 -38 350 -14 230 60 407 242 455 471 69 324 -130 645 -452 728 -81
21 -239 20 -318 -3z"/>
<path d="M1549 1690 c-83 -44 -159 -163 -201 -317 -31 -113 -31 -383 0 -496
58 -210 165 -337 287 -337 96 0 169 60 236 194 107 217 107 565 0 782 -45 89
-104 158 -156 180 -47 19 -123 17 -166 -6z"/>
<path d="M2065 1619 c-56 -107 -86 -405 -67 -652 12 -155 37 -279 67 -336 23
-45 59 -42 84 6 92 184 92 792 0 976 -25 48 -61 51 -84 6z"/>
</g>
</svg>
