<svg xmlns="http://www.w3.org/2000/svg" viewBox="0 0 408.3 443.47"><defs><style>.cls-1{fill:#5fcf80;}</style></defs><title>Asset 1</title><g id="Layer_2" data-name="Layer 2"><g id="Layer_1-2" data-name="Layer 1"><path class="cls-1" d="M360.19,80.92C345.5,72.62,322,86,307.78,110.77L282,155.66a56.6,56.6,0,0,0,3.82,58l.75,1.08c12,17.15,28,33,33.3,38.67a29.3,29.3,0,1,1-50.47,16.26c.84-6.44-1.23-16.93-10.46-27.22s-28.1,9.15-34.2,29.15l-.28.91c-6.1,20-10,37.45-8.8,39.13a33,33,0,1,1-42.76-10.51c.72-.39,1.45-.74,2.19-1.06,1.23-.55,4.72-9,7.75-18.88s4.33-13.43,5.48-18c1.55-6.13,3.83-18.83,2.7-25.12-1.26-7-8.45-7.47-15.94-2.12-4.51,3.23-12,9.58-15.61,12.19-6.85,4.9-12.57,14.41-15.6,20.24a29.1,29.1,0,1,1-32-41.89c7.33-1.6,32.27-16.83,47.29-27.58,2.7-1.93,7.22-5.13,8.75-7.09,4.5-5.75-.34-10.29-4.7-9.81-12.78,1.42-25.95,3.22-28.44,6.39A26,26,0,1,1,115,146.35c9.35.26,34,5.25,54.55,1.6l5.28-.94c20.59-3.65,45.24-21.57,55.06-40l21.48-37.73c11.87-20.84,11-43.66-2-51L225.94,5c-11.82-6.68-31.18-6.7-43,0L21.51,96C9.68,102.66,0,119.24,0,132.82V310.64c0,13.59,9.68,30.16,21.51,36.83l161.42,91c11.83,6.67,31.19,6.66,43,0L386.8,347.5c11.83-6.69,21.5-23.27,21.5-36.86V132.82c0-13.58-9.67-30.17-21.5-36.85Z"/></g></g></svg>